<svg width="689" height="242" viewBox="0 0 689 242" fill="none" xmlns="http://www.w3.org/2000/svg">
<path d="M232.075 168.103C229.2 169.285 226.336 170.493 223.483 171.728L223.363 171.789C217.478 174.326 210.736 177.226 203.377 179.933C188.563 185.419 170.836 190.325 151.153 190.325C129.246 190.325 112.45 184.452 98.9889 178C93.7931 175.51 88.9718 172.864 84.7305 170.544L81.4439 168.732C76.248 165.928 72.2122 163.91 68.6114 162.775C54.5014 158.441 39.9515 155.697 25.2322 154.594C19.3917 154.135 13.5333 153.941 7.67513 154.014L6.74471 154.05H6.49096L4.6543 154.147C11.5535 178.147 25.7155 199.421 45.1942 215.047C64.6729 230.673 88.5126 239.884 113.437 241.413C138.362 242.943 163.149 236.716 184.392 223.589C205.636 210.463 222.293 191.079 232.075 168.103ZM14.9493 62.5796L18.538 66.2288L18.5743 66.2771L18.8039 66.4946L19.843 67.4733C20.7976 68.3433 22.2597 69.6483 24.193 71.2192C28.0597 74.3608 33.7993 78.59 41.1581 82.8192C55.8876 91.3258 76.7918 99.6875 101.937 99.6875C118.54 99.6875 131.251 94.9267 142.03 89.2958C146.319 87.0483 150.186 84.7404 154.028 82.4446L157.351 80.475C162.088 77.6717 167.139 74.82 172.262 73.0558C185.527 68.4875 199.277 65.4747 213.237 64.0779C217.875 63.624 222.533 63.4142 227.193 63.4496C216.839 44.2619 201.486 28.2333 182.761 17.0629C164.037 5.89246 142.639 -0.00349143 120.836 2.04153e-06C99.2 -0.00397445 77.9601 5.80118 59.3343 16.8092C40.7084 27.8172 25.3798 43.6243 14.9493 62.5796Z" fill="#E6F1FF"/>
<path d="M238.951 146.426C240.763 138.161 241.669 129.63 241.669 120.833C241.68 107.661 239.538 94.5751 235.326 82.0941L228.958 81.6349H228.825L228.208 81.5987C223.788 81.5295 219.367 81.7029 214.965 82.1183C202.419 83.3742 190.063 86.0912 178.147 90.2141C174.969 91.3016 171.344 93.2591 166.571 96.0745L163.575 97.8629C159.684 100.195 155.237 102.853 150.428 105.355C137.982 111.867 122.358 117.812 101.95 117.812C72.7322 117.812 48.6985 108.11 32.1081 98.5275C25.3169 94.6419 18.8513 90.2129 12.7747 85.2841C10.783 83.6813 8.84851 82.0087 6.97472 80.2695C0.642288 98.1873 -1.41826 117.336 0.957222 136.191L5.60931 135.95H5.74222L6.06847 135.937C7.88009 135.868 9.69315 135.844 11.506 135.865C15.1672 135.889 20.3631 136.034 26.6464 136.53C39.1768 137.496 56.2143 139.877 74.0493 145.495C79.4868 147.199 84.9122 150.002 90.0839 152.806L93.6968 154.775C97.8776 157.071 102.119 159.403 106.831 161.663C118.673 167.342 132.738 172.187 151.153 172.187C167.864 172.187 183.319 168.031 197.094 162.932C203.993 160.394 210.373 157.651 216.318 155.077L216.536 154.993C222.276 152.528 227.858 150.123 232.764 148.492L238.951 146.426Z" fill="#06A1D5"/>
<path d="M322.836 136.592C322.836 149.744 312.276 158.96 294.996 158.96C277.62 158.96 266.772 149.648 265.716 135.056H280.5C280.884 142.64 285.78 147.536 294.708 147.536C302.1 147.536 307.38 144.272 307.38 138.704C307.38 134.384 304.02 131.792 298.164 130.64L286.836 128.432C276.372 126.416 268.308 120.752 268.308 109.328C268.308 97.04 279.156 88.208 294.036 88.208C309.492 88.208 320.82 97.232 321.78 111.632H306.996C306.516 104.432 301.524 99.536 294.228 99.536C287.124 99.536 283.092 103.568 283.092 108.368C283.092 113.072 287.412 115.088 292.404 116.048L304.212 118.448C316.308 120.848 322.836 126.416 322.836 136.592ZM343.964 114.512H333.596L332.732 89.072H344.828L343.964 114.512ZM370.351 158H357.007V89.072H370.351V128.432L389.071 106.736H404.431L383.215 131.312L406.927 158H389.935L370.351 134.192V158ZM441.347 158V151.664C437.987 156.464 432.899 158.96 425.891 158.96C415.235 158.96 408.131 152.72 408.131 143.12C408.131 133.136 416.195 127.76 431.171 127.76C434.051 127.76 436.547 127.952 439.715 128.336V125.264C439.715 119.504 436.451 116.144 430.883 116.144C425.123 116.144 421.667 119.504 421.187 125.264H409.187C409.955 113.456 418.499 105.776 430.883 105.776C444.323 105.776 452.195 113.168 452.195 125.744V158H441.347ZM420.707 142.736C420.707 147.056 423.779 149.744 428.771 149.744C435.587 149.744 439.715 146 439.715 140.048V136.4C436.547 135.92 434.339 135.728 432.035 135.728C424.451 135.728 420.707 138.128 420.707 142.736ZM479.15 94.832C479.15 99.344 475.502 102.704 470.222 102.704C465.038 102.704 461.39 99.344 461.39 94.832C461.39 90.128 465.038 86.768 470.222 86.768C475.502 86.768 479.15 90.128 479.15 94.832ZM477.038 158H463.694V106.736H477.038V158ZM534.993 158L503.409 109.904V158H490.065V89.072H505.809L535.857 134.768V89.072H549.297V158H534.993ZM584.591 158.864C569.231 158.864 558.959 148.208 558.959 132.176C558.959 116.912 569.615 105.776 584.399 105.776C600.623 105.776 611.375 118.928 608.975 135.632H572.591C573.455 143.984 577.487 148.592 584.303 148.592C590.159 148.592 594.095 145.712 595.631 140.624H608.879C605.999 152.24 597.071 158.864 584.591 158.864ZM584.111 115.568C577.871 115.568 573.935 119.6 572.783 127.184H594.863C594.479 120.08 590.447 115.568 584.111 115.568ZM649.41 145.04V156.656C646.146 158.288 643.074 158.96 639.138 158.96C628.578 158.96 621.954 152.912 621.954 141.392V118.16H611.586V106.736H621.954V91.568H635.202V106.736H649.89V118.16H635.202V138.32C635.202 144.272 637.89 146.672 642.69 146.672C645.186 146.672 647.49 146.096 649.41 145.04Z" fill="#00BFFF"/>
<path d="M661.737 98.5L664.175 87.9625L656 80.875L666.8 79.9375L671 70L675.2 79.9375L686 80.875L677.825 87.9625L680.262 98.5L671 92.9125L661.737 98.5Z" fill="#E6F1FF"/>
</svg>
