<svg width="1158" height="242" viewBox="0 0 1158 242" fill="none" xmlns="http://www.w3.org/2000/svg">
<g clip-path="url(#clip0_4801_612)">
<path d="M232.075 168.103C229.2 169.285 226.336 170.493 223.483 171.728L223.363 171.789C217.478 174.326 210.736 177.226 203.377 179.933C188.563 185.419 170.836 190.325 151.153 190.325C129.246 190.325 112.45 184.452 98.9889 178C93.7931 175.51 88.9718 172.864 84.7305 170.544L81.4439 168.732C76.248 165.928 72.2122 163.91 68.6114 162.775C54.5014 158.441 39.9515 155.697 25.2322 154.594C19.3917 154.135 13.5333 153.941 7.67513 154.014L6.74471 154.05H6.49096L4.6543 154.147C11.5535 178.147 25.7155 199.421 45.1942 215.047C64.6729 230.673 88.5126 239.884 113.437 241.413C138.362 242.943 163.149 236.716 184.392 223.589C205.636 210.463 222.293 191.079 232.075 168.103ZM14.9493 62.5796L18.538 66.2288L18.5743 66.2771L18.8039 66.4946L19.843 67.4733C20.7976 68.3433 22.2597 69.6483 24.193 71.2192C28.0597 74.3608 33.7993 78.59 41.1581 82.8192C55.8876 91.3258 76.7918 99.6875 101.937 99.6875C118.54 99.6875 131.251 94.9267 142.03 89.2958C146.319 87.0483 150.186 84.7404 154.028 82.4446L157.351 80.475C162.088 77.6717 167.139 74.82 172.262 73.0558C185.527 68.4875 199.277 65.4747 213.237 64.0779C217.875 63.624 222.533 63.4142 227.193 63.4496C216.839 44.2619 201.486 28.2333 182.761 17.0629C164.037 5.89246 142.639 -0.00349143 120.836 2.04153e-06C99.2 -0.00397445 77.9601 5.80118 59.3343 16.8092C40.7084 27.8172 25.3798 43.6243 14.9493 62.5796Z" fill="#E6F1FF"/>
<path opacity="0.5" d="M238.951 146.426C240.763 138.161 241.669 129.63 241.669 120.833C241.68 107.661 239.538 94.5751 235.326 82.0941L228.958 81.6349H228.825L228.208 81.5987C223.788 81.5295 219.367 81.7029 214.965 82.1183C202.419 83.3742 190.063 86.0912 178.147 90.2141C174.969 91.3016 171.344 93.2591 166.571 96.0745L163.575 97.8629C159.684 100.195 155.237 102.853 150.428 105.355C137.982 111.867 122.358 117.812 101.95 117.812C72.7322 117.812 48.6985 108.11 32.1081 98.5275C25.3169 94.6419 18.8513 90.2129 12.7747 85.2841C10.783 83.6813 8.84851 82.0087 6.97472 80.2695C0.642288 98.1873 -1.41826 117.336 0.957222 136.191L5.60931 135.95H5.74222L6.06847 135.937C7.88009 135.868 9.69315 135.844 11.506 135.865C15.1672 135.889 20.3631 136.034 26.6464 136.53C39.1768 137.496 56.2143 139.877 74.0493 145.495C79.4868 147.199 84.9122 150.002 90.0839 152.806L93.6968 154.775C97.8776 157.071 102.119 159.403 106.831 161.663C118.673 167.342 132.738 172.187 151.153 172.187C167.864 172.187 183.319 168.031 197.094 162.932C203.993 160.394 210.373 157.651 216.318 155.077L216.536 154.993C222.276 152.528 227.858 150.123 232.764 148.492L238.951 146.426Z" fill="#00BFFF"/>
<path d="M291.06 158.864C275.7 158.864 265.428 148.208 265.428 132.176C265.428 116.912 276.084 105.776 290.868 105.776C307.092 105.776 317.844 118.928 315.444 135.632H279.06C279.924 143.984 283.956 148.592 290.772 148.592C296.628 148.592 300.564 145.712 302.1 140.624H315.348C312.468 152.24 303.54 158.864 291.06 158.864ZM290.58 115.568C284.34 115.568 280.404 119.6 279.252 127.184H301.332C300.948 120.08 296.916 115.568 290.58 115.568ZM331.93 158H317.05L334.33 131.888L318.202 106.736H333.562L344.026 124.4L354.586 106.736H368.602L352.666 132.368L369.85 158H354.682L343.162 139.568L331.93 158ZM397.006 158.96C382.126 158.96 370.99 147.248 370.99 132.368C370.99 117.392 382.126 105.776 397.006 105.776C411.886 105.776 423.022 117.392 423.022 132.368C423.022 147.248 411.886 158.96 397.006 158.96ZM397.006 147.152C403.63 147.152 409.294 141.872 409.294 132.368C409.294 122.864 403.63 117.68 397.006 117.68C390.382 117.68 384.718 122.864 384.718 132.368C384.718 141.872 390.382 147.152 397.006 147.152ZM482.706 132.368C482.706 147.536 473.778 158.96 459.954 158.96C453.906 158.96 448.722 156.368 444.882 151.376V176.528H431.538V106.736H443.826V114.224C447.762 108.752 453.426 105.776 459.954 105.776C473.778 105.776 482.706 117.296 482.706 132.368ZM468.978 132.368C468.978 122.768 463.506 117.584 456.978 117.584C450.45 117.584 444.978 122.672 444.978 132.368C444.978 142.064 450.45 147.056 456.978 147.056C463.506 147.056 468.978 142.16 468.978 132.368ZM504.697 158H491.257V89.072H504.697V158ZM547.191 158V151.664C543.831 156.464 538.743 158.96 531.735 158.96C521.079 158.96 513.975 152.72 513.975 143.12C513.975 133.136 522.039 127.76 537.015 127.76C539.895 127.76 542.391 127.952 545.559 128.336V125.264C545.559 119.504 542.295 116.144 536.727 116.144C530.967 116.144 527.511 119.504 527.031 125.264H515.031C515.799 113.456 524.343 105.776 536.727 105.776C550.167 105.776 558.039 113.168 558.039 125.744V158H547.191ZM526.551 142.736C526.551 147.056 529.623 149.744 534.615 149.744C541.431 149.744 545.559 146 545.559 140.048V136.4C542.391 135.92 540.183 135.728 537.879 135.728C530.295 135.728 526.551 138.128 526.551 142.736ZM582.882 130.064V158H569.538V106.736H581.826V114.032C585.57 108.944 590.85 105.776 597.57 105.776C607.842 105.776 614.946 112.496 614.946 124.88V158H601.698V129.392C601.698 121.808 598.722 117.584 592.674 117.584C587.394 117.584 582.882 121.808 582.882 130.064ZM648.716 158.864C633.356 158.864 623.084 148.208 623.084 132.176C623.084 116.912 633.74 105.776 648.524 105.776C664.748 105.776 675.5 118.928 673.1 135.632H636.716C637.58 143.984 641.612 148.592 648.428 148.592C654.284 148.592 658.22 145.712 659.756 140.624H673.004C670.124 152.24 661.196 158.864 648.716 158.864ZM648.236 115.568C641.996 115.568 638.06 119.6 636.908 127.184H658.988C658.604 120.08 654.572 115.568 648.236 115.568ZM713.535 145.04V156.656C710.271 158.288 707.199 158.96 703.263 158.96C692.703 158.96 686.079 152.912 686.079 141.392V118.16H675.711V106.736H686.079V91.568H699.327V106.736H714.015V118.16H699.327V138.32C699.327 144.272 702.015 146.672 706.815 146.672C709.311 146.672 711.615 146.096 713.535 145.04Z" fill="#E6F1FF"/>
<path d="M772.753 158V151.664C769.393 156.464 764.305 158.96 757.297 158.96C746.641 158.96 739.537 152.72 739.537 143.12C739.537 133.136 747.601 127.76 762.577 127.76C765.457 127.76 767.953 127.952 771.121 128.336V125.264C771.121 119.504 767.857 116.144 762.289 116.144C756.529 116.144 753.073 119.504 752.593 125.264H740.593C741.361 113.456 749.905 105.776 762.289 105.776C775.729 105.776 783.601 113.168 783.601 125.744V158H772.753ZM752.113 142.736C752.113 147.056 755.185 149.744 760.177 149.744C766.993 149.744 771.121 146 771.121 140.048V136.4C767.953 135.92 765.745 135.728 763.441 135.728C755.857 135.728 752.113 138.128 752.113 142.736ZM808.444 130.064V158H795.1V106.736H807.388V114.032C811.132 108.944 816.412 105.776 823.132 105.776C833.404 105.776 840.508 112.496 840.508 124.88V158H827.26V129.392C827.26 121.808 824.284 117.584 818.236 117.584C812.956 117.584 808.444 121.808 808.444 130.064ZM882.535 158V151.664C879.175 156.464 874.087 158.96 867.079 158.96C856.423 158.96 849.319 152.72 849.319 143.12C849.319 133.136 857.383 127.76 872.359 127.76C875.239 127.76 877.735 127.952 880.903 128.336V125.264C880.903 119.504 877.639 116.144 872.071 116.144C866.311 116.144 862.855 119.504 862.375 125.264H850.375C851.143 113.456 859.687 105.776 872.071 105.776C885.511 105.776 893.383 113.168 893.383 125.744V158H882.535ZM861.895 142.736C861.895 147.056 864.967 149.744 869.959 149.744C876.775 149.744 880.903 146 880.903 140.048V136.4C877.735 135.92 875.527 135.728 873.223 135.728C865.639 135.728 861.895 138.128 861.895 142.736ZM918.322 158H904.882V89.072H918.322V158ZM976.464 106.736L951.504 176.528H937.008L944.304 157.424L924.144 106.736H938.544L951.408 141.872L963.12 106.736H976.464ZM1023.79 158H980.111V147.248L1006.51 118.256H980.015V106.736H1023.02V117.68L996.527 146.384H1023.79V158ZM1054.47 158.864C1039.11 158.864 1028.83 148.208 1028.83 132.176C1028.83 116.912 1039.49 105.776 1054.27 105.776C1070.5 105.776 1081.25 118.928 1078.85 135.632H1042.47C1043.33 143.984 1047.36 148.592 1054.18 148.592C1060.03 148.592 1063.97 145.712 1065.51 140.624H1078.75C1075.87 152.24 1066.95 158.864 1054.47 158.864ZM1053.99 115.568C1047.75 115.568 1043.81 119.6 1042.66 127.184H1064.74C1064.35 120.08 1060.32 115.568 1053.99 115.568ZM1101.13 133.136V158H1087.79V106.736H1100.08V116.624C1103.82 110.096 1111.79 106.16 1120.04 106.16V119.984C1108.72 119.12 1101.13 121.808 1101.13 133.136Z" fill="#00BFFF"/>
<path d="M1130.57 98.5L1133.01 87.9625L1124.84 80.875L1135.64 79.9375L1139.84 70L1144.04 79.9375L1154.84 80.875L1146.66 87.9625L1149.1 98.5L1139.84 92.9125L1130.57 98.5Z" fill="#E6F1FF"/>
</g>
<defs>
<clipPath id="clip0_4801_612">
<rect width="1158" height="242" fill="white"/>
</clipPath>
</defs>
</svg>
